<svg xmlns="http://www.w3.org/2000/svg" width="20" height="20" viewBox="0 0 20 20">
    <g fill="none" fill-rule="evenodd">
        <g>
            <g>
                <g>
                    <path fill="#FFF" d="M0 0H20V20H0z" transform="translate(-465 -765) translate(465 503) translate(0 262)"/>
                    <g>
                        <path fill="#0079C4" fill-rule="nonzero" d="M0 18.2H20V20H0z" transform="translate(-465 -765) translate(465 503) translate(0 262)"/>
                        <g fill="#0079C4">
                            <path d="M8.765 1.82l-.38-.988h-.559s.688 1.692.676 1.708c-.004.012-.232.6-.244.616.016.004.558 0 .562-.004.004-.028.832-2.32.832-2.32h-.534l-.353.988zM6.566 0c-.177 0-.322.148-.322.328 0 .18.141.328.322.328.177 0 .322-.148.322-.328C6.888.144 6.743 0 6.566 0M3.189 2.46v-.164-.904-.024C3.18 1.264 3.122.836 2.61.812h-.145c-.526.012-.593.124-.593.124v.428s.161-.128.389-.132c.224-.004.314.032.365.08.012.012.024.028.035.044.016.036.032.064.04.112 0 0-.004.024-.008.028s-.02.004-.02.004l-.02-.004c-.011-.008-.086-.052-.376-.04-.181.008-.385.14-.424.192-.052.06-.173.152-.173.464 0 .104.039.232.125.384.087.152.358.196.366.196.137.004.286-.004.353-.024.07-.024.137-.072.157-.088.012-.012.04-.008.04.004 0 .032.007.06.023.088.004.016.008.024.008.024h.526c-.02-.024-.035-.04-.043-.06-.008-.04-.047-.14-.047-.176m-.534-.228c-.036.032-.087.036-.318.036-.036 0-.173-.052-.173-.208 0-.288.29-.26.373-.26.078 0 .165.032.165.088 0 .044.004.176.004.236s-.028.088-.051.108M13.956 2.46V1.392v-.024c-.007-.104-.062-.532-.577-.556h-.145c-.53.012-.593.124-.593.124v.428s.16-.128.385-.132c.224-.004.314.032.369.08.012.012.023.028.035.044.016.036.032.064.04.112 0 0-.004.024-.008.028s-.02.004-.02.004l-.02-.004c-.008-.008-.086-.052-.373-.04-.184.008-.385.14-.428.192-.05.06-.173.152-.173.464 0 .104.04.232.126.384.087.152.357.196.365.196.138.004.287-.004.354-.024.07-.024.137-.072.157-.088.012-.012.04-.008.04.004 0 .032.01.06.023.088l.011.024h.527c-.02-.024-.036-.04-.047-.06-.008-.04-.048-.14-.048-.176m-.534-.228c-.035.032-.086.036-.318.036-.035 0-.173-.052-.173-.208 0-.288.291-.26.374-.26.078 0 .164.032.164.088v.236c.004.06-.023.088-.047.108M5.4.808c-.283 0-.515.096-.527.22-.011-.124-.22-.22-.479-.22-.2 0-.373.06-.443.144V.836h-.436c-.02 0-.024.008-.024.024v1.832h.48V1.48c0-.1.113-.18.258-.18.146 0 .26.08.26.18v1.212h.49V1.48c0-.1.114-.18.26-.18.145 0 .259.08.259.18v1.212h.498V1.336v-.004C5.973.972 5.682.808 5.4.808M14.722.988V.832h-.483v1.856h.48v-1.2c.05-.044.184-.14.337-.14.196 0 .287.076.287.076v-.54s-.114-.068-.256-.068c-.106 0-.278.1-.365.172M6.318.832H7.318V2.688H6.318z" transform="translate(-465 -765) translate(465 503) translate(0 262) translate(1.884 12.5)"/>
                            <path d="M7.171.036H8.171V2.688H7.171zM.507.544L1.685.544 1.685.036.507.036 0 .036 0 .544 0 2.688.507 2.688.507 1.524 1.638 1.524 1.638 1.016.507 1.016zM16.635 1.316V.832h-.42V.136l-.48.224v.468h-.267v.484h.267V2.172h.004c.028.46.417.512.605.512.196 0 .271-.052.271-.052v-.46s-.043.036-.22.036-.177-.248-.177-.248v-.652h.417v.008zM11.003.848l-.648-.812H9.83v2.656h.526V.86s.55.716.648.848c.099-.128.648-.844.648-.848v1.832h.53V.036h-.53l-.648.812" transform="translate(-465 -765) translate(465 503) translate(0 262) translate(1.884 12.5)"/>
                        </g>
                        <path fill="#1EAA39" fill-rule="nonzero" d="M0 0H20V9H0z" transform="translate(-465 -765) translate(465 503) translate(0 262)"/>
                    </g>
                </g>
            </g>
        </g>
    </g>
</svg>
