<svg xmlns="http://www.w3.org/2000/svg" width="24" height="24" viewBox="0 0 24 24">
    <g fill="none" fill-rule="evenodd">
        <rect width="24" height="24" fill="#006546" rx="2"/>
        <path fill="#FFF" d="M15.057 22.14v.931H9.323v-.931h-4.34c-.424 0-.769-.443-.769-.99L2.4 2.79c0-.547.423-.99.945-.99h17.532c.522 0 .945.443.945.99l-1.795 18.36c0 .547-.344.99-.769.99h-4.201"/>
        <path fill="#F60" d="M5.458 4.157h11.74c-1.156.433-4.675 2.815-5.554 4.416H5.472l-.014-4.416"/>
        <path fill="#FE000C" d="M14.862 16.8c-.167 1.6-.174 3.547-.174 5.592H9.6c0-2.045.084-3.993.25-5.592h5.012"/>
        <path fill="#006546" d="M5.084 13.145h1.86v.736H6.13v.62h.814v.62H6.13v.62h.814v.71h-1.86v-3.306M9.41 13.145h1.86v.736h-.814v.62h.814v.62h-.814v.62h.814v.71H9.41v-3.306M14.176 13.145h1.86v.736h-.814v.62h.814v.62h-.814v.62h.814v.71h-1.86v-3.306M8.338 15.74h.814v.711h-1.86v-3.306h1.046v2.596M11.46 13.145l.519 3.306h1.344l.63-3.306h-.778l-.407 2.234-.395-2.234h-.913M16.475 13.145h1.007v3.306h-1.007z"/>
        <path fill="#006546" d="M17.482 14.127c.052-.362.568-.265.568-.058v2.382h1.007V13.65c0-.594-.839-.833-1.569-.31"/>
        <path fill="#FE000C" d="M15.287 12.68c.103-1.265 1.834-3.332 3.513-3.874V3.925c-4.617 2.066-7.62 5.19-8.27 8.743l4.757.012"/>
        <path fill="#006546" d="M16.282 17.495a.348.348 0 0 0-.158-.027h-.112v.262h.118a.369.369 0 0 0 .124-.016c.051-.02.077-.058.077-.113 0-.053-.017-.088-.05-.106zm-.141-.119c.09 0 .158.01.2.027.076.031.114.093.114.185 0 .066-.024.114-.071.145a.268.268 0 0 1-.105.035c.056.01.097.034.123.072a.2.2 0 0 1 .04.114v.053c0 .017 0 .035.002.055 0 .019.003.032.006.038l.005.01h-.12l-.002-.008c0-.002 0-.006-.002-.008l-.002-.024v-.058c0-.084-.024-.14-.07-.167a.314.314 0 0 0-.144-.024h-.103v.288h-.128v-.733h.257zm-.395-.036a.552.552 0 0 0-.167.406c0 .16.055.296.167.408a.55.55 0 0 0 .407.169c.16 0 .295-.056.407-.17a.557.557 0 0 0 .168-.407.553.553 0 0 0-.168-.406.557.557 0 0 0-.407-.168.554.554 0 0 0-.407.168zm.88.878a.643.643 0 0 1-.473.196.64.64 0 0 1-.472-.196.647.647 0 0 1-.194-.473c0-.183.065-.34.196-.47a.64.64 0 0 1 .47-.195c.185 0 .342.065.472.194.131.13.196.287.196.47a.645.645 0 0 1-.196.474z"/>
    </g>
</svg>
