<svg xmlns="http://www.w3.org/2000/svg" xmlns:xlink="http://www.w3.org/1999/xlink" viewBox="0 0 238.95 70.27"><defs><style>.a{fill:#015942;}.b{fill:#ed1b5b;}.c{fill:#1dfc51;}.d{fill:url(#a);}.e{fill:url(#b);}.f{fill:url(#c);}.g,.h,.i,.k,.l,.m{opacity:0.3;}.g,.h,.i,.k,.l,.m,.p,.q{isolation:isolate;}.g{fill:url(#d);}.h{fill:url(#e);}.i{fill:url(#f);}.j{fill:url(#g);}.k{fill:url(#h);}.l{fill:url(#i);}.m{fill:url(#j);}.n{fill:url(#k);}.o{fill:#fff;}.p,.q{opacity:0.8;}.p{fill:url(#l);}.q{fill:url(#m);}.r{fill:url(#n);}</style><linearGradient id="a" x1="2403.74" y1="353.5" x2="2419.78" y2="391.87" gradientTransform="matrix(0.98, 0.19, -0.19, 0.98, -2261.55, -761.83)" gradientUnits="userSpaceOnUse"><stop offset="0" stop-color="#1dfc51"/><stop offset="0.2" stop-color="#25d24e"/><stop offset="0.54" stop-color="#338148"/><stop offset="1" stop-color="#015942"/></linearGradient><linearGradient id="b" x1="-3683" y1="950.39" x2="-3658.46" y2="927.5" gradientTransform="matrix(-1, 0, 0, 1, -3641.21, -927.94)" gradientUnits="userSpaceOnUse"><stop offset="0" stop-color="#e83a95"/><stop offset="0.08" stop-color="#ed64ac"/><stop offset="0.25" stop-color="#f9cee5"/><stop offset="0.33" stop-color="#fff"/></linearGradient><linearGradient id="c" x1="-3682.94" y1="950.46" x2="-3658.39" y2="927.57" xlink:href="#b"/><linearGradient id="d" x1="17.44" y1="936.82" x2="13.49" y2="949.41" gradientTransform="translate(0 -927.94)" gradientUnits="userSpaceOnUse"><stop offset="0.49" stop-color="#1dfc51"/><stop offset="0.63" stop-color="#16d24d"/><stop offset="0.93" stop-color="#046844"/><stop offset="0.97" stop-color="#015942"/></linearGradient><linearGradient id="e" x1="22.09" y1="939.03" x2="12.94" y2="948.71" xlink:href="#d"/><linearGradient id="f" x1="19.77" y1="941.48" x2="12.09" y2="949.61" xlink:href="#d"/><linearGradient id="g" x1="29.84" y1="945.91" x2="36.19" y2="994.48" gradientTransform="translate(0 -927.94)" gradientUnits="userSpaceOnUse"><stop offset="0" stop-color="#015942"/><stop offset="0.26" stop-color="#01462d"/><stop offset="0.81" stop-color="#002103"/></linearGradient><linearGradient id="h" x1="10.42" y1="951.93" x2="23.38" y2="936.16" gradientTransform="translate(0 -927.94)" gradientUnits="userSpaceOnUse"><stop offset="0" stop-color="#015942"/><stop offset="0.28" stop-color="#379145"/><stop offset="0.51" stop-color="#60bb47"/></linearGradient><linearGradient id="i" x1="10.42" y1="951.93" x2="23.38" y2="936.16" gradientTransform="translate(0 -927.94)" gradientUnits="userSpaceOnUse"><stop offset="0" stop-color="#015942"/><stop offset="0.04" stop-color="#046844"/><stop offset="0.37" stop-color="#16d24d"/><stop offset="0.51" stop-color="#1dfc51"/></linearGradient><linearGradient id="j" x1="12.81" y1="949.03" x2="23.1" y2="936.49" gradientTransform="translate(0 -927.94)" gradientUnits="userSpaceOnUse"><stop offset="0" stop-color="#015942"/><stop offset="1" stop-color="#60bb47" stop-opacity="0"/></linearGradient><linearGradient id="k" x1="52.31" y1="911.47" x2="44.4" y2="949.68" gradientTransform="translate(0 -927.94)" gradientUnits="userSpaceOnUse"><stop offset="0" stop-color="#60bb47"/><stop offset="0.45" stop-color="#379145"/><stop offset="1" stop-color="#015942"/></linearGradient><linearGradient id="l" x1="26" y1="927.97" x2="26" y2="955.01" gradientTransform="translate(0 -927.94)" gradientUnits="userSpaceOnUse"><stop offset="0" stop-color="#1dfc51"/><stop offset="0.19" stop-color="#16d24d"/><stop offset="0.63" stop-color="#046844"/><stop offset="0.68" stop-color="#015942"/></linearGradient><linearGradient id="m" x1="26" y1="925.48" x2="26" y2="952.52" gradientTransform="translate(0 -927.94)" gradientUnits="userSpaceOnUse"><stop offset="0" stop-color="#1dfc51"/><stop offset="0.28" stop-color="#16d24d"/><stop offset="0.92" stop-color="#046844"/><stop offset="1" stop-color="#015942"/></linearGradient><linearGradient id="n" x1="43.59" y1="964.57" x2="25.81" y2="981.08" gradientTransform="translate(0 -927.94)" gradientUnits="userSpaceOnUse"><stop offset="0" stop-color="#015942"/><stop offset="0.08" stop-color="#046844"/><stop offset="0.72" stop-color="#16d24d"/><stop offset="1" stop-color="#1dfc51"/></linearGradient></defs><title>logo-new</title><path class="a" d="M53.8,41.6H47.6a15,15,0,0,1-.2-2.2,14.92,14.92,0,0,1,.2-2.1H65a14.92,14.92,0,0,1,.2,2.1,15,15,0,0,1-.2,2.2H58.8V62.1c-.4,0-.8.1-1.2.1s-.8.1-1.2.1H55.1c-.4,0-.9-.1-1.4-.1V41.6Z" transform="translate(0.02 -0.03)"/><path class="a" d="M71.5,62.5a9.2,9.2,0,0,1-3.8-.7,7.62,7.62,0,0,1-2.7-2,9,9,0,0,1-1.6-2.9,10.46,10.46,0,0,1-.5-3.6,15,15,0,0,1,.5-3.7,10.81,10.81,0,0,1,1.6-3,7.94,7.94,0,0,1,2.7-2,8.9,8.9,0,0,1,3.8-.7,9.2,9.2,0,0,1,3.8.7,6.83,6.83,0,0,1,2.7,2,8.57,8.57,0,0,1,1.6,3,14.38,14.38,0,0,1,.5,3.7,13.61,13.61,0,0,1-.5,3.6,10.81,10.81,0,0,1-1.6,3,7.94,7.94,0,0,1-2.7,2A10.82,10.82,0,0,1,71.5,62.5Zm0-3.7a3.12,3.12,0,0,0,2.8-1.4,7.87,7.87,0,0,0,.8-4.1,8.73,8.73,0,0,0-.8-4.1,2.93,2.93,0,0,0-2.8-1.4,2.85,2.85,0,0,0-2.7,1.4,7.87,7.87,0,0,0-.8,4.1,8.73,8.73,0,0,0,.8,4.1A3,3,0,0,0,71.5,58.8Z" transform="translate(0.02 -0.03)"/><path class="a" d="M82.1,44.3a2.77,2.77,0,0,1,.9-.1h1.1a15,15,0,0,1,2,.2c.1.1.1.3.2.5s.1.5.2.7a2,2,0,0,1,.1.7c0,.2.1.4.1.6a7.63,7.63,0,0,1,.8-1.1,3.13,3.13,0,0,1,1.1-.9,6.11,6.11,0,0,1,1.4-.7,4.84,4.84,0,0,1,1.8-.3,8.68,8.68,0,0,1,2.8.5,6.27,6.27,0,0,1,2.3,1.7,9.24,9.24,0,0,1,1.5,2.8,12.16,12.16,0,0,1,.5,4,10.19,10.19,0,0,1-.7,4,8.11,8.11,0,0,1-4.9,4.9,12.54,12.54,0,0,1-4.1.7,4.87,4.87,0,0,1-1.2-.1c-.4,0-.7-.1-.9-.1v7.9a5.7,5.7,0,0,1-1.3.1H83.4c-.4,0-.8-.1-1.3-.1V44.3Zm4.9,14a6.65,6.65,0,0,0,2.1.3,4.22,4.22,0,0,0,3.3-1.4c.8-.9,1.1-2.3,1.1-4.2a12.31,12.31,0,0,0-.2-2,4.42,4.42,0,0,0-.6-1.6,3.18,3.18,0,0,0-1-1,2.54,2.54,0,0,0-1.6-.4,3.34,3.34,0,0,0-1.5.3,2.84,2.84,0,0,0-1,.9,5.17,5.17,0,0,0-.6,1.3,7.77,7.77,0,0,0-.2,1.6l.2,6.2Z" transform="translate(0.02 -0.03)"/><path class="a" d="M117.6,57.4a11.76,11.76,0,0,1,.7,2,17.66,17.66,0,0,1,.4,2,32.91,32.91,0,0,1-3.2.9,30.28,30.28,0,0,1-3.1.2,13.28,13.28,0,0,1-5.1-.9,9.12,9.12,0,0,1-3.7-2.7,11.33,11.33,0,0,1-2.3-4,16.66,16.66,0,0,1,0-10.2,11.78,11.78,0,0,1,2.3-4.1,11.43,11.43,0,0,1,3.7-2.7,13.1,13.1,0,0,1,5-1,26.61,26.61,0,0,1,3,.2,10,10,0,0,1,3,.9,6.47,6.47,0,0,1-.4,2,16.67,16.67,0,0,1-.8,2,11.52,11.52,0,0,0-2.1-.6,13.79,13.79,0,0,0-2.2-.2,6.35,6.35,0,0,0-5.1,2.1c-1.2,1.4-1.8,3.6-1.8,6.4,0,5.6,2.4,8.4,7.1,8.4a13.79,13.79,0,0,0,2.2-.2A6.87,6.87,0,0,0,117.6,57.4Z" transform="translate(0.02 -0.03)"/><path class="a" d="M129.6,50.4a2.5,2.5,0,0,0-.3-1.3,2,2,0,0,0-.8-.8,3.37,3.37,0,0,0-1.2-.4,8.08,8.08,0,0,0-1.6-.1,12.05,12.05,0,0,0-4,.7,7.66,7.66,0,0,1-.7-1.7,5.55,5.55,0,0,1-.2-1.9c1-.3,2-.6,3-.8a13.68,13.68,0,0,1,2.8-.2,8.51,8.51,0,0,1,5.6,1.7c1.3,1.1,2,3,2,5.5V61.4a17.65,17.65,0,0,1-2.9.7,22.09,22.09,0,0,1-3.9.3,15.82,15.82,0,0,1-3.2-.3,8.16,8.16,0,0,1-2.5-1,4.94,4.94,0,0,1-1.6-1.9,6.09,6.09,0,0,1-.6-2.8,5.07,5.07,0,0,1,.7-2.8,7.69,7.69,0,0,1,1.8-1.8,6.91,6.91,0,0,1,2.5-1,12.65,12.65,0,0,1,2.8-.3,17,17,0,0,1,2.2.1l.1-.2Zm0,3.6c-.3,0-.6-.1-.9-.1s-.6-.1-.9-.1a5.4,5.4,0,0,0-2.7.6,2.06,2.06,0,0,0-1,1.9,2,2,0,0,0,.4,1.4,2.76,2.76,0,0,0,.9.7,4.51,4.51,0,0,0,1.1.3c.4,0,.8.1,1.1.1a3.4,3.4,0,0,0,1-.1c.3-.1.6-.1.9-.2l.1-4.5Z" transform="translate(0.02 -0.03)"/><path class="a" d="M141.1,54.4a7.1,7.1,0,0,1-3-1.6,4.52,4.52,0,0,1-1.1-3.3,4.89,4.89,0,0,1,1.9-4.1,8.14,8.14,0,0,1,5.1-1.5,21.11,21.11,0,0,1,2.6.2,26.81,26.81,0,0,1,2.7.7,14.81,14.81,0,0,1-.3,1.9,8.65,8.65,0,0,1-.7,1.7l-1.8-.6a7.61,7.61,0,0,0-2.1-.3,3,3,0,0,0-1.8.4,1.39,1.39,0,0,0-.7,1.2,1.29,1.29,0,0,0,.5,1.1,8.1,8.1,0,0,0,1.3.6l2,.6a8.65,8.65,0,0,1,1.7.7,4.49,4.49,0,0,1,1.3,1,4.19,4.19,0,0,1,.9,1.4,6.23,6.23,0,0,1,.3,2.1,6.87,6.87,0,0,1-.5,2.4,5.81,5.81,0,0,1-1.6,1.9,8.42,8.42,0,0,1-2.5,1.3,11.42,11.42,0,0,1-3.3.5,6.62,6.62,0,0,1-1.5-.1,5.07,5.07,0,0,1-1.3-.2c-.4-.1-.8-.2-1.3-.3s-.9-.3-1.3-.4a14.81,14.81,0,0,1,.3-1.9,13.35,13.35,0,0,1,.7-1.8c.8.3,1.5.5,2.1.7a14.92,14.92,0,0,0,2.1.2,3.4,3.4,0,0,0,1-.1l1.1-.3a2.41,2.41,0,0,0,.8-.6,1.4,1.4,0,0,0,.3-.9,1.66,1.66,0,0,0-.5-1.2,3.67,3.67,0,0,0-1.4-.6Z" transform="translate(0.02 -0.03)"/><path class="a" d="M151.9,36.9a4.87,4.87,0,0,1,1.2-.1h2.4c.4,0,.8.1,1.2.1v9.5c.2-.2.4-.5.6-.7a3.92,3.92,0,0,1,1-.8c.4-.2.9-.5,1.4-.7a5.82,5.82,0,0,1,1.9-.3,5.47,5.47,0,0,1,4.5,1.7c1,1.1,1.5,2.8,1.5,5.2V62.2a4.87,4.87,0,0,1-1.2.1H164c-.4,0-.8-.1-1.2-.1V52.1a6,6,0,0,0-.6-2.9,2.12,2.12,0,0,0-2-1,5,5,0,0,0-1.2.2,1.9,1.9,0,0,0-1.1.7,3.69,3.69,0,0,0-.8,1.4,7.55,7.55,0,0,0-.3,2.3v9.4a4.87,4.87,0,0,1-1.2.1h-2.4c-.4,0-.8-.1-1.2-.1l-.1-25.3Z" transform="translate(0.02 -0.03)"/><path class="a" d="M170.6,36.9a14.5,14.5,0,0,1,4.8,0V46a3.63,3.63,0,0,1,1.7-1.5,6.09,6.09,0,0,1,2.8-.6,9.29,9.29,0,0,1,2.9.5,6.27,6.27,0,0,1,2.3,1.7,9.24,9.24,0,0,1,1.5,2.8,12,12,0,0,1,.6,4,10.19,10.19,0,0,1-.7,4,7.91,7.91,0,0,1-2,3,8.52,8.52,0,0,1-3.2,1.9,14.34,14.34,0,0,1-4.3.7,9.15,9.15,0,0,1-1.6-.1,9.85,9.85,0,0,1-1.7-.2c-.6-.1-1.1-.2-1.6-.3s-1-.3-1.4-.4l-.1-24.6Zm4.8,21.4c.3.1.6.1.9.2h.9a4.46,4.46,0,0,0,3.5-1.3,5.91,5.91,0,0,0,1.3-4.1,7.68,7.68,0,0,0-.8-3.8,2.79,2.79,0,0,0-2.7-1.3,3.17,3.17,0,0,0-2.3.9,4,4,0,0,0-.9,2.9l.1,6.5Z" transform="translate(0.02 -0.03)"/><path class="a" d="M198.8,50.4a2.5,2.5,0,0,0-.3-1.3,2,2,0,0,0-.8-.8,3.37,3.37,0,0,0-1.2-.4,8.08,8.08,0,0,0-1.6-.1,12.05,12.05,0,0,0-4,.7,7.66,7.66,0,0,1-.7-1.7,5.55,5.55,0,0,1-.2-1.9c1-.3,2-.6,3-.8a13.68,13.68,0,0,1,2.8-.2,8.51,8.51,0,0,1,5.6,1.7c1.3,1.1,2,3,2,5.5V61.4a17.65,17.65,0,0,1-2.9.7,22.09,22.09,0,0,1-3.9.3,15.82,15.82,0,0,1-3.2-.3,8.16,8.16,0,0,1-2.5-1,4.31,4.31,0,0,1-1.6-1.9,6.09,6.09,0,0,1-.6-2.8,5.07,5.07,0,0,1,.7-2.8,7.69,7.69,0,0,1,1.8-1.8,9.34,9.34,0,0,1,2.5-1,12.65,12.65,0,0,1,2.8-.3,17,17,0,0,1,2.2.1l.1-.2Zm0,3.6c-.3,0-.6-.1-.9-.1s-.6-.1-.9-.1a5.4,5.4,0,0,0-2.7.6,2.06,2.06,0,0,0-1,1.9,2,2,0,0,0,.4,1.4,2.76,2.76,0,0,0,.9.7,4.51,4.51,0,0,0,1.1.3c.4,0,.8.1,1,.1a3.4,3.4,0,0,0,1-.1c.3-.1.6-.1.9-.2l.2-4.5Z" transform="translate(0.02 -0.03)"/><path class="a" d="M218.8,57.9a7.74,7.74,0,0,1,.7,1.6,6.87,6.87,0,0,1,.3,2.2,9.19,9.19,0,0,1-2.6.7,19.48,19.48,0,0,1-2.5.2,9.37,9.37,0,0,1-3.9-.7,7.72,7.72,0,0,1-2.7-1.9,7.48,7.48,0,0,1-1.6-2.9,11,11,0,0,1-.6-3.7,15,15,0,0,1,.5-3.7,10.81,10.81,0,0,1,1.6-3,6.83,6.83,0,0,1,2.7-2,8.9,8.9,0,0,1,3.8-.7h1.4c.4,0,.8.1,1.2.1l1.2.3c.4.1.8.3,1.3.4a14.05,14.05,0,0,1-.2,1.8,6.19,6.19,0,0,1-.7,1.9c-.7-.2-1.3-.4-1.8-.5a9.72,9.72,0,0,0-1.8-.1,3.88,3.88,0,0,0-3.2,1.4,6.56,6.56,0,0,0-1.1,4,5.91,5.91,0,0,0,1.2,4.1,4.28,4.28,0,0,0,3.2,1.3h.9a2,2,0,0,0,.8-.1,1.88,1.88,0,0,0,.8-.2C218.1,58.2,218.4,58.1,218.8,57.9Z" transform="translate(0.02 -0.03)"/><path class="a" d="M221.9,36.9a14.5,14.5,0,0,1,4.8,0V62.1a14.5,14.5,0,0,1-4.8,0Z" transform="translate(0.02 -0.03)"/><path class="a" d="M233.6,62.5a.8.8,0,0,1-.8-.4l-6.9-8.4a.75.75,0,0,1-.1-.5h0c0-.2.1-.3.1-.5,0,0,5.5-6.6,6.9-8.4a.8.8,0,0,1,.8-.4h5.1c.1,0,.4.2.1.5-1.6,1.9-6.9,8.3-6.9,8.3a.75.75,0,0,0-.1.5c0,.2.1.3.1.5,0,0,5.3,6.4,6.9,8.3.3.3,0,.5-.1.5Z" transform="translate(0.02 -0.03)"/><path class="b" d="M29.7,31.1l.3-1.2a4.88,4.88,0,0,0,.3-.7c8-10.4,19.1-10.5,31.2-8.2a58.28,58.28,0,0,1,12.8,4.1c.2.1.2.6-.2.5-10.9-3.5-19.3-2.1-25.5.5a25.89,25.89,0,0,0-10.5,7.6C33.8,35.6,29.6,34,29.7,31.1Z" transform="translate(0.02 -0.03)"/><path class="c" d="M15.7.8C15.5,0,16.9-.4,18.1.7,24.5,6.1,30.5,18.9,36,16.9c-1.4,1.2-2.8,2-4.3,1.7-3.3-.9-8-3.4-13-6.1A88.49,88.49,0,0,1,15.7.8Z" transform="translate(0.02 -0.03)"/><path class="d" d="M31.6,62.1c-6.3-7.6-9-17.8-4.2-28.5a24.73,24.73,0,0,0-1.1,3.6c-1.6,8.3,5.2,16.5,11.2,18.2.3.1.3.4,0,.6a7,7,0,0,0-4.8,4.8,4.87,4.87,0,0,0-.1,1.2C32.6,62.5,32,62.6,31.6,62.1Z" transform="translate(0.02 -0.03)"/><path class="e" d="M30,29.8l.3-.6c8-10.5,19.1-10.6,31.2-8.2.3.1.7.1,1,.2s.5.1.8.2h0c-10.3-1.2-23.6,1-28.7,13.1C31.3,34.5,28.9,32.5,30,29.8Z" transform="translate(0.02 -0.03)"/><path class="f" d="M29.8,29.9c.1-.2.4-.5.4-.7,8-10.5,19.1-10.6,31.2-8.2.3.1.7.1,1,.2s.5.1.8.2h0c-10.3-1.2-23.6,1-28.7,13.1C31.3,34.5,28.7,32.6,29.8,29.9Z" transform="translate(0.02 -0.03)"/><path class="g" d="M26.2,32.6c-3.5-2-14-9-25.8-26.5C5.3,8,34.1,21.8,27.5,33.3h-.3a.1.1,0,0,1-.1-.1H27a.1.1,0,0,1-.1-.1h0c-.1-.1-.2-.1-.3-.2h0c-.2-.2-.3-.2-.4-.3Z" transform="translate(0.02 -0.03)"/><path class="h" d="M26.2,32.6c-3.5-2-14-9-25.8-26.5C5.3,8,34.1,21.8,27.5,33.3h-.3a.1.1,0,0,1-.1-.1H27a.1.1,0,0,1-.1-.1h0c-.1-.1-.2-.1-.3-.2h0c-.2-.2-.3-.2-.4-.3Z" transform="translate(0.02 -0.03)"/><path class="i" d="M26.2,32.6c-3.5-2-14-9-25.8-26.5C5.3,8,34.1,21.8,27.5,33.3h-.3a.1.1,0,0,1-.1-.1H27a.1.1,0,0,1-.1-.1h0c-.1-.1-.2-.1-.3-.2h0c-.2-.2-.3-.2-.4-.3Z" transform="translate(0.02 -0.03)"/><path class="j" d="M32.9,53h0c-.1-.1-.2-.2-.3-.2s-.2-.1-.2-.2-.2-.2-.3-.2-.2-.1-.2-.2l-.3-.3-.3-.3-.4-.4c-.1-.1-.1-.2-.2-.2l-.3-.3c-.1-.1-.1-.2-.2-.3s-.2-.2-.2-.3-.1-.2-.2-.3-.1-.2-.2-.3-.1-.2-.2-.3-.1-.2-.2-.3-.1-.2-.2-.3-.1-.2-.2-.3-.1-.2-.2-.3-.1-.2-.2-.3-.1-.2-.2-.3-.1-.2-.2-.3-.1-.2-.2-.3a.37.37,0,0,1-.1-.3c-.1-.1-.1-.2-.2-.4s-.1-.2-.1-.3-.1-.3-.2-.4a.35.35,0,0,0-.1-.2,8.8,8.8,0,0,1-.5-1.5.37.37,0,0,0-.1-.3c0-.1-.1-.3-.1-.4a.37.37,0,0,0-.1-.3c0-.1-.1-.3-.1-.4a.37.37,0,0,0-.1-.3.6.6,0,0,0-.1-.4V39.5a18,18,0,0,1,.2-2.2,20.14,20.14,0,0,1,1-3.5c.1-.1.1-.3.2-.4S14.7,27.7.1,5.9c-.6-1,1.2-1.4,2.1-1.1C11,7.1,24.5,16.7,31.7,18.5,38.2,20.2,41.9.1,56.3,16.8c.7.8,1.2,1.4,1.7,1.9s.2.6-.3.5A33.08,33.08,0,0,0,51.8,18h0c-.4,0-.4-.1-.5-.4a2.34,2.34,0,0,0-2.2-1,2.46,2.46,0,0,0-2.2,1c-.1.3-.2.3-.4.4-6.2.5-13,3.3-16.5,11.8-1.5,3.6,3.6,5.5,8.9,2.9h0A26.43,26.43,0,0,0,33.4,43a16.15,16.15,0,0,0-.6,3.3,26.42,26.42,0,0,0-.2,2.9A23.4,23.4,0,0,0,32.9,53Z" transform="translate(0.02 -0.03)"/><path class="k" d="M26.2,32.6c-3.5-2-14-9-25.8-26.5C5.3,8,34.1,21.8,27.5,33.3h-.3a.1.1,0,0,1-.1-.1H27a.1.1,0,0,1-.1-.1h0c-.1-.1-.2-.1-.3-.2h0c-.2-.2-.3-.2-.4-.3Z" transform="translate(0.02 -0.03)"/><path class="l" d="M26.2,32.6c-3.5-2-14-9-25.8-26.5C5.3,8,34.1,21.8,27.5,33.3h-.3a.1.1,0,0,1-.1-.1H27a.1.1,0,0,1-.1-.1h0c-.1-.1-.2-.1-.3-.2h0c-.2-.2-.3-.2-.4-.3Z" transform="translate(0.02 -0.03)"/><path class="m" d="M26.2,32.6c-3.5-2-14-9-25.8-26.5C5.3,8,30.6,24.6,27.5,33.3h-.3a.1.1,0,0,1-.1-.1H27a.1.1,0,0,1-.1-.1h0c-.1-.1-.2-.1-.3-.2h0c-.2-.2-.3-.2-.4-.3Z" transform="translate(0.02 -0.03)"/><path class="n" d="M32.1,18.6Zm.1,0Zm-.4,0Zm26.2.2c-.5-.5-1.1-1.2-1.8-1.9-10.2-12-15-5.2-19.3-.9l-.3.3a8.94,8.94,0,0,1-2.8,2.1h0a.1.1,0,0,0-.1.1h0c-.1,0-.1,0-.2.1H31.9c6.3.7,10.2-14.2,25.5.6h.3C58.3,19.3,58.3,19.1,58,18.8Zm-25.8-.2Z" transform="translate(0.02 -0.03)"/><path class="o" d="M57.8,19.3h0a4.17,4.17,0,0,1-.6-.2H57a26.17,26.17,0,0,0-5.4-1h0c-.5,0-.3-.1-.5-.4a2.34,2.34,0,0,0-2.2-1,2.58,2.58,0,0,0-2.2,1c-.1.3-.2.3-.4.4-6.1.5-12.7,3.2-16.2,11.2,8-10.4,19.1-10.5,31.2-8.2.8.2,1.7.4,2.8.6Z" transform="translate(0.02 -0.03)"/><path class="p" d="M16.1,3.1c0-.3-.1-.6-.1-.8,10.1,8.1,13.2,19.1,20,14.6-1.4,1.2-2.7,2-4.3,1.6-3.3-.9-8-3.4-13-6.1A84.65,84.65,0,0,1,16.1,3.1Z" transform="translate(0.02 -0.03)"/><path class="q" d="M16.1,3.1c0-.3-.1-.6-.1-.8,10.1,8.1,13.2,19.1,20,14.6-1.4,1.2-2.7,2-4.3,1.6-3.3-.9-8-3.4-13-6.1A84.65,84.65,0,0,1,16.1,3.1Z" transform="translate(0.02 -0.03)"/><path class="r" d="M37.4,56a7.78,7.78,0,0,0-4.1,3.1A25.9,25.9,0,0,1,26,39.3h0c-.3,7.6,5.9,14.6,11.5,16.1C37.8,55.5,37.8,55.8,37.4,56Z" transform="translate(0.02 -0.03)"/></svg>